HIERARCHY
ROOT joint_Root
{
	OFFSET 0.0 0.0 0.0
	CHANNELS 6 Xposition Yposition Zposition Zrotation Xrotation Yrotation 
	JOINT Hips
	{
		OFFSET -17.1583 93.1646 452.98
		CHANNELS 6 Xposition Yposition Zposition Zrotation Xrotation Yrotation 
		JOINT Spine
		{
			OFFSET 15.7357 0.0 0.0
			CHANNELS 6 Xposition Yposition Zposition Zrotation Xrotation Yrotation 
			JOINT Chest
			{
				OFFSET 8.98455 -0.406207 0.0
				CHANNELS 6 Xposition Yposition Zposition Zrotation Xrotation Yrotation 
				JOINT Neck
				{
					OFFSET 16.3773 0.0 0.0
					CHANNELS 6 Xposition Yposition Zposition Zrotation Xrotation Yrotation 
					JOINT Head
					{
						OFFSET 6.45672 0.0 0.0
						CHANNELS 6 Xposition Yposition Zposition Zrotation Xrotation Yrotation 
						End Site
						{
							OFFSET 0.0 0.0 0.0
						}
					}
				}
				JOINT Shoulder_L
				{
					OFFSET 12.9942 -0.242716 4.98039
					CHANNELS 6 Xposition Yposition Zposition Zrotation Xrotation Yrotation 
					JOINT UpperArm_L
					{
						OFFSET 5.34809 0.0 0.0
						CHANNELS 6 Xposition Yposition Zposition Zrotation Xrotation Yrotation 
						JOINT LowerArm_L
						{
							OFFSET 24.3286 1.87007e-05 0.0
							CHANNELS 6 Xposition Yposition Zposition Zrotation Xrotation Yrotation 
							JOINT Hand_L
							{
								OFFSET 22.2916 0.0 0.0
								CHANNELS 6 Xposition Yposition Zposition Zrotation Xrotation Yrotation 
								End Site
								{
									OFFSET 0.0 0.0 0.0
								}
							}
						}
					}
				}
				JOINT Shoulder_R
				{
					OFFSET 12.9945 -0.242716 -4.98039
					CHANNELS 6 Xposition Yposition Zposition Zrotation Xrotation Yrotation 
					JOINT UpperArm_R
					{
						OFFSET -5.34813 0.0 0.0
						CHANNELS 6 Xposition Yposition Zposition Zrotation Xrotation Yrotation 
						JOINT LowerArm_R
						{
							OFFSET -24.3289 0.000322201 0.0
							CHANNELS 6 Xposition Yposition Zposition Zrotation Xrotation Yrotation 
							JOINT Hand_R
							{
								OFFSET -22.2915 -0.000108084 0.0
								CHANNELS 6 Xposition Yposition Zposition Zrotation Xrotation Yrotation 
								End Site
								{
									OFFSET 0.0 0.0 0.0
								}
							}
						}
					}
				}
			}
		}
		JOINT UpperLeg_L
		{
			OFFSET -2.19248 -6.46944 0.0
			CHANNELS 6 Xposition Yposition Zposition Zrotation Xrotation Yrotation 
			JOINT LowerLeg_L
			{
				OFFSET 39.0811 0.0 -1.23785e-05
				CHANNELS 6 Xposition Yposition Zposition Zrotation Xrotation Yrotation 
				JOINT Foot_L
				{
					OFFSET 40.9854 0.0 -1.26872e-05
					CHANNELS 6 Xposition Yposition Zposition Zrotation Xrotation Yrotation 
					JOINT Toes_L
					{
						OFFSET 11.7543 0.0 0.0
						CHANNELS 6 Xposition Yposition Zposition Zrotation Xrotation Yrotation 
						End Site
						{
							OFFSET 0.0 0.0 0.0
						}
					}
				}
			}
		}
		JOINT UpperLeg_R
		{
			OFFSET -2.19251 6.46944 0.0
			CHANNELS 6 Xposition Yposition Zposition Zrotation Xrotation Yrotation 
			JOINT LowerLeg_R
			{
				OFFSET -39.0811 -0.00228153 -0.0401928
				CHANNELS 6 Xposition Yposition Zposition Zrotation Xrotation Yrotation 
				JOINT Foot_R
				{
					OFFSET -40.9854 0.0 0.0
					CHANNELS 6 Xposition Yposition Zposition Zrotation Xrotation Yrotation 
					JOINT Toes_R
					{
						OFFSET -11.7543 0.0 0.0
						CHANNELS 6 Xposition Yposition Zposition Zrotation Xrotation Yrotation 
						End Site
						{
							OFFSET 0.0 0.0 0.0
						}
					}
				}
			}
		}
	}
}
MOTION
Frames:	5
Frame Time:	0.0333333
0.000000 0.000000 0.000000 0.000000 0.000000 -0.000000 -2.355460 93.193000 -0.363923 87.735100 1.841400 0.804022 15.735700 0.000005 -0.000001 63.401700 87.751000 -61.380300 8.984550 -0.406207 -0.000000 -3.703040 -2.214940 3.972950 16.377300 -0.000001 -0.000001 1.472570 2.261960 -4.751590 6.456720 -0.000001 -0.000000 3.108770 1.916080 -3.720860 12.994200 -0.242716 4.980390 -92.867800 9.045410 -72.326700 5.348090 -0.000007 -0.000001 -71.958700 20.969700 4.549590 24.328600 0.000019 0.000005 12.730500 25.727600 -27.494200 22.291600 -0.000001 0.000005 -5.869230 5.164090 3.599550 12.994500 -0.242716 -4.980390 88.642700 4.298850 -72.458600 -5.348130 -0.000001 -0.000004 -68.237900 16.506400 -3.468100 -24.328900 0.000322 -0.000009 0.835791 4.694340 -10.119200 -22.291500 -0.000108 -0.000004 -11.839400 5.309490 -0.167997 -2.192480 -6.469440 -0.000000 -171.418000 -5.331470 -0.550357 39.081100 -0.000007 -0.000012 0.034529 -0.142162 13.652200 40.985400 -0.000006 -0.000013 -2.376610 15.532400 -68.344500 11.754300 -0.000000 0.000003 -0.000001 0.167636 -9.777600 -2.192510 6.469440 -0.000001 178.235000 6.984730 -179.248000 -39.081100 -0.002282 -0.040193 0.011023 -0.036334 11.946700 -40.985400 0.000008 0.000006 -6.839650 7.679390 -66.810000 -11.754300 -0.000006 -0.000006 -0.007495 0.251524 -6.359330
0.000000 0.000000 0.000000 0.000000 0.000000 -0.000000 -2.354880 93.388900 -0.358473 87.750900 2.374610 -0.634301 15.735700 0.000005 -0.000001 53.498300 88.126400 -51.695000 8.984550 -0.406207 -0.000000 -4.715410 -2.423210 3.509840 16.377300 -0.000001 -0.000001 0.048038 2.068300 -4.977110 6.456720 -0.000001 -0.000000 2.191780 1.605250 -4.748980 12.994200 -0.242716 4.980390 -92.898600 9.034310 -72.128300 5.348090 -0.000007 -0.000001 -70.054900 17.381100 4.543320 24.328600 0.000019 0.000005 13.073200 26.481000 -27.509100 22.291600 -0.000001 0.000005 -7.576090 5.199190 2.739910 12.994500 -0.242716 -4.980390 88.810300 3.651780 -71.940600 -5.348130 -0.000001 -0.000004 -64.761800 9.368310 -4.124260 -24.328900 0.000322 -0.000009 0.624652 4.771940 -7.479600 -22.291500 -0.000108 -0.000004 -18.953700 5.227220 2.032960 -2.192480 -6.469440 -0.000000 -171.199000 -7.050790 -1.188370 39.081100 -0.000007 -0.000012 0.012319 -0.059574 11.684100 40.985400 -0.000006 -0.000013 -4.260560 17.824700 -66.440700 11.754300 -0.000000 0.000003 -0.000145 0.170024 -9.680580 -2.192510 6.469440 -0.000001 178.074000 7.888570 -179.341000 -39.081100 -0.002282 -0.040193 0.005377 -0.012678 9.125130 -40.985400 0.000008 0.000006 -9.514360 8.217850 -64.295300 -11.754300 -0.000006 -0.000006 -0.007600 0.252401 -6.323480
0.000000 0.000000 0.000000 0.000000 0.000000 -0.000000 -2.424390 93.718300 -0.432750 87.850500 3.099160 -2.399920 15.735700 0.000005 -0.000001 37.738300 88.564300 -36.378600 8.984550 -0.406207 -0.000000 -5.981240 -2.430330 2.595990 16.377300 -0.000001 -0.000001 -1.538380 1.637700 -5.118020 6.456720 -0.000001 -0.000000 1.550450 0.897522 -5.480100 12.994200 -0.242716 4.980390 -92.746200 8.640310 -72.292700 5.348090 -0.000007 -0.000001 -67.830600 13.991800 4.202040 24.328600 0.000019 0.000005 12.307500 25.790700 -26.631200 22.291600 -0.000001 0.000005 -7.399430 5.166410 3.546020 12.994500 -0.242716 -4.980390 89.050800 2.853530 -71.591400 -5.348130 -0.000001 -0.000004 -59.718700 2.349230 -4.425760 -24.328900 0.000322 -0.000009 0.387784 5.097830 -4.368460 -22.291500 -0.000108 -0.000004 -20.497800 5.199190 2.740400 -2.192480 -6.469440 -0.000000 -170.826000 -8.305230 -0.758974 39.081100 -0.000007 -0.000012 -0.002176 0.019571 6.343470 40.985400 -0.000006 -0.000013 -10.601900 19.916100 -60.366900 11.754300 -0.000000 0.000003 0.000114 0.165691 -9.856580 -2.192510 6.469440 -0.000001 178.193000 9.623350 179.640000 -39.081100 -0.002282 -0.040193 0.009624 -0.048468 7.384030 -40.985400 0.000008 0.000006 -9.997840 9.081190 -62.310000 -11.754300 -0.000006 -0.000006 -0.007383 0.250587 -6.397570
0.000000 0.000000 0.000000 0.000000 0.000000 -0.000000 -2.546310 94.100500 -0.494413 87.921500 3.815770 -3.669910 15.735700 0.000005 -0.000001 21.292300 88.792800 -20.519300 8.984550 -0.406207 -0.000000 -6.876260 -2.343850 1.407770 16.377300 -0.000001 -0.000001 -3.063470 1.126010 -5.258190 6.456720 -0.000001 -0.000000 0.912174 0.060666 -6.044830 12.994200 -0.242716 4.980390 -92.560700 8.139110 -72.469200 5.348090 -0.000007 -0.000001 -65.292300 10.597100 3.784370 24.328600 0.000019 0.000005 12.111400 25.845000 -26.208400 22.291600 -0.000001 0.000005 -5.248240 5.121930 4.603270 12.994500 -0.242716 -4.980390 89.375100 1.862230 -71.446400 -5.348130 -0.000001 -0.000004 -53.501100 -5.321200 -4.360930 -24.328900 0.000322 -0.000009 0.132145 5.790220 -1.322130 -22.291500 -0.000108 -0.000004 -16.816900 5.213580 2.379210 -2.192480 -6.469440 -0.000000 -170.777000 -8.972480 -0.318279 39.081100 -0.000007 -0.000012 0.004119 -0.115929 2.035320 40.985400 -0.000006 -0.000013 -13.838000 20.748800 -55.374500 11.754300 -0.000000 0.000003 0.000873 0.151342 -10.439100 -2.192510 6.469440 -0.000001 178.417000 11.309700 178.893000 -39.081100 -0.002282 -0.040193 0.011817 -0.080557 6.003400 -40.985400 0.000008 0.000006 -10.351600 9.792110 -60.112500 -11.754300 -0.000006 -0.000006 -0.006244 0.240704 -6.800880
0.000000 0.000000 0.000000 0.000000 0.000000 -0.000000 -2.762560 94.456700 -0.560322 87.707500 4.158570 -4.593850 15.735700 0.000005 -0.000001 8.764560 88.935600 -8.610230 8.984550 -0.406207 -0.000000 -7.441740 -2.119460 0.171440 16.377300 -0.000001 -0.000001 -4.463130 0.737948 -5.524900 6.456720 -0.000001 -0.000000 0.176790 -0.695065 -6.209680 12.994200 -0.242716 4.980390 -92.399200 7.637680 -72.503200 5.348090 -0.000007 -0.000001 -62.535200 7.413830 3.439320 24.328600 0.000019 0.000005 11.669900 24.988000 -26.055900 22.291600 -0.000001 0.000005 -1.728390 5.072340 5.734590 12.994500 -0.242716 -4.980390 89.755100 0.722828 -71.281200 -5.348130 -0.000001 -0.000004 -46.822400 -15.363800 -4.140160 -24.328900 0.000322 -0.000009 -0.000950 6.214970 0.000021 -22.291500 -0.000108 -0.000004 -9.572790 5.202470 2.649320 -2.192480 -6.469440 -0.000000 -170.531000 -9.413630 -1.543080 39.081100 -0.000007 -0.000012 0.004144 -0.123897 1.916110 40.985400 -0.000006 -0.000013 -14.664800 21.224900 -53.394000 11.754300 -0.000000 0.000003 0.001539 0.135564 -11.079300 -2.192510 6.469440 -0.000001 179.006000 12.246600 178.074000 -39.081100 -0.002282 -0.040193 0.013164 -0.107386 5.223290 -40.985400 0.000008 0.000006 -10.603900 10.114700 -57.974600 -11.754300 -0.000006 -0.000006 -0.004630 0.225508 -7.420340
